<mxfile host="Electron" agent="Mozilla/5.0 (Macintosh; Intel Mac OS X 10_15_7) AppleWebKit/537.36 (KHTML, like Gecko) draw.io/24.7.17 Chrome/128.0.6613.36 Electron/32.0.1 Safari/537.36" version="24.7.17">
  <diagram name="Page-1" id="_gRGWOFDqU3hSQWJzQTY">
    <mxGraphModel dx="1862" dy="1805" grid="1" gridSize="10" guides="1" tooltips="1" connect="1" arrows="1" fold="1" page="1" pageScale="1" pageWidth="850" pageHeight="1100" background="none" math="1" shadow="0">
      <root>
        <mxCell id="0" />
        <mxCell id="1" parent="0" />
        <mxCell id="U2g8rZyLT_9OAayW0UQs-4" value="" style="endArrow=classic;html=1;rounded=0;strokeWidth=2;fontFamily=Segoe UI;" parent="1" edge="1">
          <mxGeometry width="50" height="50" relative="1" as="geometry">
            <mxPoint x="-720" y="-620" as="sourcePoint" />
            <mxPoint x="-80" y="-620" as="targetPoint" />
          </mxGeometry>
        </mxCell>
        <mxCell id="U2g8rZyLT_9OAayW0UQs-55" style="edgeStyle=orthogonalEdgeStyle;rounded=0;orthogonalLoop=1;jettySize=auto;html=1;entryX=0.5;entryY=1;entryDx=0;entryDy=0;endArrow=oval;endFill=1;fontFamily=Segoe UI;" parent="1" source="U2g8rZyLT_9OAayW0UQs-2" target="U2g8rZyLT_9OAayW0UQs-34" edge="1">
          <mxGeometry relative="1" as="geometry" />
        </mxCell>
        <mxCell id="U2g8rZyLT_9OAayW0UQs-2" value="2024" style="ellipse;whiteSpace=wrap;html=1;fontStyle=1;fontFamily=Segoe UI;" parent="1" vertex="1">
          <mxGeometry x="-140.5" y="-640.5" width="41" height="41" as="geometry" />
        </mxCell>
        <mxCell id="U2g8rZyLT_9OAayW0UQs-43" style="edgeStyle=orthogonalEdgeStyle;rounded=0;orthogonalLoop=1;jettySize=auto;html=1;entryX=0.5;entryY=1;entryDx=0;entryDy=0;endArrow=oval;endFill=1;fontFamily=Segoe UI;" parent="1" source="U2g8rZyLT_9OAayW0UQs-3" target="U2g8rZyLT_9OAayW0UQs-6" edge="1">
          <mxGeometry relative="1" as="geometry" />
        </mxCell>
        <mxCell id="U2g8rZyLT_9OAayW0UQs-3" value="2001" style="ellipse;whiteSpace=wrap;html=1;fontStyle=1;fontFamily=Segoe UI;" parent="1" vertex="1">
          <mxGeometry x="-710" y="-640" width="40" height="40" as="geometry" />
        </mxCell>
        <mxCell id="U2g8rZyLT_9OAayW0UQs-6" value="【SIGGRAPH 2001】BEAT" style="text;html=1;align=center;verticalAlign=middle;whiteSpace=wrap;rounded=0;fontFamily=Segoe UI;" parent="1" vertex="1">
          <mxGeometry x="-745" y="-700" width="110" height="40" as="geometry" />
        </mxCell>
        <mxCell id="U2g8rZyLT_9OAayW0UQs-44" style="edgeStyle=orthogonalEdgeStyle;rounded=0;orthogonalLoop=1;jettySize=auto;html=1;endArrow=oval;endFill=1;fontFamily=Segoe UI;" parent="1" source="U2g8rZyLT_9OAayW0UQs-7" target="U2g8rZyLT_9OAayW0UQs-9" edge="1">
          <mxGeometry relative="1" as="geometry" />
        </mxCell>
        <mxCell id="U2g8rZyLT_9OAayW0UQs-7" value="2010" style="ellipse;whiteSpace=wrap;html=1;fontStyle=1;fontFamily=Segoe UI;" parent="1" vertex="1">
          <mxGeometry x="-640" y="-640" width="40" height="40" as="geometry" />
        </mxCell>
        <mxCell id="U2g8rZyLT_9OAayW0UQs-9" value="【SIGGRAPH 2010】Gesture Controllers" style="text;html=1;align=center;verticalAlign=middle;whiteSpace=wrap;rounded=0;fontFamily=Segoe UI;" parent="1" vertex="1">
          <mxGeometry x="-675" y="-750" width="110" height="40" as="geometry" />
        </mxCell>
        <mxCell id="U2g8rZyLT_9OAayW0UQs-10" value="" style="verticalLabelPosition=bottom;shadow=0;dashed=0;align=center;html=1;verticalAlign=top;strokeWidth=1;shape=mxgraph.mockup.markup.curlyBrace;whiteSpace=wrap;strokeColor=#999999;rotation=-180;fontFamily=Segoe UI;" parent="1" vertex="1">
          <mxGeometry x="-710" y="-599" width="40" height="11" as="geometry" />
        </mxCell>
        <mxCell id="U2g8rZyLT_9OAayW0UQs-11" value="Rule Base" style="text;html=1;align=center;verticalAlign=middle;whiteSpace=wrap;rounded=0;fontFamily=Segoe UI;fontStyle=1" parent="1" vertex="1">
          <mxGeometry x="-725" y="-588" width="60" height="30" as="geometry" />
        </mxCell>
        <mxCell id="U2g8rZyLT_9OAayW0UQs-45" style="edgeStyle=orthogonalEdgeStyle;rounded=0;orthogonalLoop=1;jettySize=auto;html=1;entryX=0.5;entryY=1;entryDx=0;entryDy=0;endArrow=oval;endFill=1;fontFamily=Segoe UI;" parent="1" source="U2g8rZyLT_9OAayW0UQs-12" target="U2g8rZyLT_9OAayW0UQs-24" edge="1">
          <mxGeometry relative="1" as="geometry" />
        </mxCell>
        <mxCell id="U2g8rZyLT_9OAayW0UQs-12" value="2012" style="ellipse;whiteSpace=wrap;html=1;fontStyle=1;fontFamily=Segoe UI;" parent="1" vertex="1">
          <mxGeometry x="-580" y="-640" width="40" height="40" as="geometry" />
        </mxCell>
        <mxCell id="U2g8rZyLT_9OAayW0UQs-13" value="&lt;div&gt;&lt;span style=&quot;text-align: left; background-color: rgb(255, 255, 255);&quot;&gt;&lt;font style=&quot;&quot;&gt;&lt;font color=&quot;#1f2328&quot;&gt;【SIGGRAPH 2022】&lt;/font&gt;&lt;br&gt;&lt;/font&gt;&lt;/span&gt;&lt;/div&gt;&lt;span style=&quot;color: rgb(31, 35, 40); text-align: left; background-color: rgb(255, 255, 255);&quot;&gt;&lt;font style=&quot;font-size: 12px;&quot;&gt;GANimator&lt;/font&gt;&lt;/span&gt;&lt;div&gt;&lt;p dir=&quot;auto&quot; style=&quot;box-sizing: border-box; margin-top: var(--base-size-16); margin-bottom: var(--base-size-16); color: rgb(31, 35, 40); font-size: 16px; background-color: rgb(255, 255, 255);&quot;&gt;&lt;span style=&quot;box-sizing: border-box; font-weight: var(--base-text-weight-semibold, 600);&quot;&gt;GAN&lt;/span&gt;&lt;/p&gt;&lt;ul dir=&quot;auto&quot; style=&quot;box-sizing: border-box; padding-left: 2em; margin-top: 0px; margin-bottom: 0px; color: rgb(31, 35, 40); font-size: 16px; text-align: left; background-color: rgb(255, 255, 255);&quot;&gt;&lt;/ul&gt;&lt;/div&gt;" style="text;html=1;align=center;verticalAlign=middle;whiteSpace=wrap;rounded=0;fontFamily=Segoe UI;" parent="1" vertex="1">
          <mxGeometry x="-407" y="-950" width="112.5" height="50" as="geometry" />
        </mxCell>
        <mxCell id="U2g8rZyLT_9OAayW0UQs-51" style="edgeStyle=orthogonalEdgeStyle;rounded=0;orthogonalLoop=1;jettySize=auto;html=1;endArrow=oval;endFill=1;fontFamily=Segoe UI;" parent="1" source="U2g8rZyLT_9OAayW0UQs-14" target="U2g8rZyLT_9OAayW0UQs-52" edge="1">
          <mxGeometry relative="1" as="geometry">
            <mxPoint x="-420" y="-850" as="targetPoint" />
          </mxGeometry>
        </mxCell>
        <mxCell id="U2g8rZyLT_9OAayW0UQs-14" value="【MM 2021】Speech2AffectiveGestures&lt;div&gt;&lt;span style=&quot;box-sizing: border-box; font-weight: var(--base-text-weight-semibold, 600); color: rgb(31, 35, 40); font-size: 16px; text-align: left; background-color: rgb(255, 255, 255);&quot;&gt;RNN&lt;/span&gt;&lt;br&gt;&lt;/div&gt;" style="text;html=1;align=center;verticalAlign=middle;whiteSpace=wrap;rounded=0;fontFamily=Segoe UI;" parent="1" vertex="1">
          <mxGeometry x="-465" y="-720" width="90" height="60" as="geometry" />
        </mxCell>
        <mxCell id="U2g8rZyLT_9OAayW0UQs-18" value="【ICCV 2021】&lt;div&gt;Audio2Gestures&lt;/div&gt;&lt;div&gt;&lt;span style=&quot;box-sizing: border-box; font-weight: var(--base-text-weight-semibold, 600); color: rgb(31, 35, 40); font-size: 16px; text-align: left; background-color: rgb(255, 255, 255);&quot;&gt;VAEs&lt;/span&gt;&lt;br&gt;&lt;/div&gt;" style="text;html=1;align=center;verticalAlign=middle;whiteSpace=wrap;rounded=0;fontFamily=Segoe UI;" parent="1" vertex="1">
          <mxGeometry x="-455" y="-910" width="70" height="50" as="geometry" />
        </mxCell>
        <mxCell id="U2g8rZyLT_9OAayW0UQs-46" style="edgeStyle=orthogonalEdgeStyle;rounded=0;orthogonalLoop=1;jettySize=auto;html=1;entryX=0.5;entryY=1;entryDx=0;entryDy=0;endArrow=oval;endFill=1;fontFamily=Segoe UI;" parent="1" source="U2g8rZyLT_9OAayW0UQs-19" target="U2g8rZyLT_9OAayW0UQs-14" edge="1">
          <mxGeometry relative="1" as="geometry" />
        </mxCell>
        <mxCell id="U2g8rZyLT_9OAayW0UQs-19" value="2021" style="ellipse;whiteSpace=wrap;html=1;fontStyle=1;fontFamily=Segoe UI;" parent="1" vertex="1">
          <mxGeometry x="-440" y="-640" width="40" height="40" as="geometry" />
        </mxCell>
        <mxCell id="U2g8rZyLT_9OAayW0UQs-21" value="" style="verticalLabelPosition=bottom;shadow=0;dashed=0;align=center;html=1;verticalAlign=top;strokeWidth=1;shape=mxgraph.mockup.markup.curlyBrace;whiteSpace=wrap;strokeColor=#999999;rotation=-180;fontFamily=Segoe UI;" parent="1" vertex="1">
          <mxGeometry x="-521" y="-599" width="127" height="11" as="geometry" />
        </mxCell>
        <mxCell id="U2g8rZyLT_9OAayW0UQs-48" style="edgeStyle=orthogonalEdgeStyle;rounded=0;orthogonalLoop=1;jettySize=auto;html=1;entryX=0.5;entryY=1;entryDx=0;entryDy=0;endArrow=oval;endFill=1;fontFamily=Segoe UI;" parent="1" source="U2g8rZyLT_9OAayW0UQs-23" target="U2g8rZyLT_9OAayW0UQs-26" edge="1">
          <mxGeometry relative="1" as="geometry" />
        </mxCell>
        <mxCell id="U2g8rZyLT_9OAayW0UQs-23" value="2022" style="ellipse;whiteSpace=wrap;html=1;fontStyle=1;fontFamily=Segoe UI;" parent="1" vertex="1">
          <mxGeometry x="-370.75" y="-638" width="40" height="40" as="geometry" />
        </mxCell>
        <mxCell id="U2g8rZyLT_9OAayW0UQs-24" value="【HRI 2012】Robot Behavior Toolkit" style="text;html=1;align=center;verticalAlign=middle;whiteSpace=wrap;rounded=0;fontFamily=Segoe UI;" parent="1" vertex="1">
          <mxGeometry x="-610.5" y="-711" width="101" height="50" as="geometry" />
        </mxCell>
        <mxCell id="U2g8rZyLT_9OAayW0UQs-59" style="edgeStyle=orthogonalEdgeStyle;rounded=0;orthogonalLoop=1;jettySize=auto;html=1;endArrow=oval;endFill=1;fontFamily=Segoe UI;" parent="1" source="U2g8rZyLT_9OAayW0UQs-26" target="U2g8rZyLT_9OAayW0UQs-13" edge="1">
          <mxGeometry relative="1" as="geometry" />
        </mxCell>
        <mxCell id="U2g8rZyLT_9OAayW0UQs-26" value="&lt;span style=&quot;color: rgb(31, 35, 40); text-align: left; background-color: rgb(255, 255, 255);&quot;&gt;&lt;font style=&quot;font-size: 12px;&quot;&gt;【CVPR 2022】&lt;/font&gt;&lt;/span&gt;&lt;font color=&quot;#1f2328&quot;&gt;HA2G&lt;/font&gt;&lt;div&gt;&lt;span style=&quot;box-sizing: border-box; font-weight: var(--base-text-weight-semibold, 600); color: rgb(31, 35, 40); font-size: 16px; text-align: left; background-color: rgb(255, 255, 255);&quot;&gt;RNN&lt;/span&gt;&lt;font color=&quot;#1f2328&quot;&gt;&lt;br&gt;&lt;/font&gt;&lt;/div&gt;" style="text;html=1;align=center;verticalAlign=middle;whiteSpace=wrap;rounded=0;fontFamily=Segoe UI;" parent="1" vertex="1">
          <mxGeometry x="-400.75" y="-760" width="101" height="40" as="geometry" />
        </mxCell>
        <mxCell id="U2g8rZyLT_9OAayW0UQs-57" style="edgeStyle=orthogonalEdgeStyle;rounded=0;orthogonalLoop=1;jettySize=auto;html=1;entryX=0.5;entryY=1;entryDx=0;entryDy=0;endArrow=oval;endFill=1;fontFamily=Segoe UI;" parent="1" source="U2g8rZyLT_9OAayW0UQs-28" target="U2g8rZyLT_9OAayW0UQs-29" edge="1">
          <mxGeometry relative="1" as="geometry" />
        </mxCell>
        <mxCell id="U2g8rZyLT_9OAayW0UQs-28" value="2023" style="ellipse;whiteSpace=wrap;html=1;fontStyle=1;fontFamily=Segoe UI;" parent="1" vertex="1">
          <mxGeometry x="-260.5" y="-640" width="40" height="40" as="geometry" />
        </mxCell>
        <mxCell id="U2g8rZyLT_9OAayW0UQs-29" value="&lt;font style=&quot;font-size: 12px;&quot;&gt;【SIGGRAPH 2023】 Listen, denoise, action!&lt;/font&gt;&lt;div&gt;&lt;span style=&quot;box-sizing: border-box; font-weight: var(--base-text-weight-semibold, 600); color: rgb(31, 35, 40); font-size: 16px; text-align: left; background-color: rgb(255, 255, 255);&quot;&gt;Diffusion&lt;/span&gt;&lt;br&gt;&lt;/div&gt;" style="text;html=1;align=center;verticalAlign=middle;whiteSpace=wrap;rounded=0;fontFamily=Segoe UI;" parent="1" vertex="1">
          <mxGeometry x="-309.5" y="-771" width="138" height="60" as="geometry" />
        </mxCell>
        <mxCell id="U2g8rZyLT_9OAayW0UQs-30" value="" style="verticalLabelPosition=bottom;shadow=0;dashed=0;align=center;html=1;verticalAlign=top;strokeWidth=1;shape=mxgraph.mockup.markup.curlyBrace;whiteSpace=wrap;strokeColor=#999999;rotation=-180;fontFamily=Segoe UI;" parent="1" vertex="1">
          <mxGeometry x="-269" y="-599" width="169.5" height="11" as="geometry" />
        </mxCell>
        <mxCell id="U2g8rZyLT_9OAayW0UQs-31" value="【CVPR 2023】Taming Diffusion" style="text;html=1;align=center;verticalAlign=middle;whiteSpace=wrap;rounded=0;fontFamily=Segoe UI;" parent="1" vertex="1">
          <mxGeometry x="-290.5" y="-836" width="100" height="30" as="geometry" />
        </mxCell>
        <mxCell id="U2g8rZyLT_9OAayW0UQs-33" value="【IJCAI 2023】DiffuseStyleGesture" style="text;html=1;align=center;verticalAlign=middle;whiteSpace=wrap;rounded=0;fontFamily=Segoe UI;" parent="1" vertex="1">
          <mxGeometry x="-300.5" y="-801" width="120" height="30" as="geometry" />
        </mxCell>
        <mxCell id="U2g8rZyLT_9OAayW0UQs-56" style="edgeStyle=orthogonalEdgeStyle;rounded=0;orthogonalLoop=1;jettySize=auto;html=1;entryX=0.5;entryY=1;entryDx=0;entryDy=0;endArrow=oval;endFill=1;fontFamily=Segoe UI;" parent="1" source="U2g8rZyLT_9OAayW0UQs-34" target="U2g8rZyLT_9OAayW0UQs-36" edge="1">
          <mxGeometry relative="1" as="geometry" />
        </mxCell>
        <mxCell id="U2g8rZyLT_9OAayW0UQs-34" value="【CVPR 2024】DiffSHEG&lt;div&gt;&lt;span style=&quot;color: rgb(31, 35, 40); font-size: 16px; font-weight: 600; text-align: left; background-color: rgb(255, 255, 255);&quot;&gt;Diffusion&lt;/span&gt;&lt;br&gt;&lt;/div&gt;" style="text;html=1;align=center;verticalAlign=middle;whiteSpace=wrap;rounded=0;fontFamily=Segoe UI;" parent="1" vertex="1">
          <mxGeometry x="-180" y="-740" width="120" height="60" as="geometry" />
        </mxCell>
        <mxCell id="U2g8rZyLT_9OAayW0UQs-36" value="【ACM 2024】MambaGesture&lt;div&gt;&lt;span style=&quot;color: rgb(31, 35, 40); font-size: 16px; font-weight: 600; text-align: left; background-color: rgb(255, 255, 255);&quot;&gt;Diffusion&lt;/span&gt;&lt;br&gt;&lt;/div&gt;" style="text;html=1;align=center;verticalAlign=middle;whiteSpace=wrap;rounded=0;fontFamily=Segoe UI;" parent="1" vertex="1">
          <mxGeometry x="-150" y="-820" width="60" height="60" as="geometry" />
        </mxCell>
        <mxCell id="U2g8rZyLT_9OAayW0UQs-37" value="【ICMI 2020】Gesticulator Gesticulator&lt;div&gt;&lt;span style=&quot;box-sizing: border-box; font-weight: var(--base-text-weight-semibold, 600); color: rgb(31, 35, 40); font-size: 16px; text-align: left; background-color: rgb(255, 255, 255);&quot;&gt;MLP&lt;/span&gt;&lt;br&gt;&lt;/div&gt;" style="text;html=1;align=center;verticalAlign=middle;whiteSpace=wrap;rounded=0;fontFamily=Segoe UI;" parent="1" vertex="1">
          <mxGeometry x="-543" y="-780" width="85" height="70" as="geometry" />
        </mxCell>
        <mxCell id="U2g8rZyLT_9OAayW0UQs-39" value="&lt;span style=&quot;&quot;&gt;Statistic&lt;/span&gt;" style="text;html=1;align=center;verticalAlign=middle;whiteSpace=wrap;rounded=0;fontStyle=1;fontFamily=Segoe UI;" parent="1" vertex="1">
          <mxGeometry x="-650" y="-587" width="60" height="30" as="geometry" />
        </mxCell>
        <mxCell id="U2g8rZyLT_9OAayW0UQs-41" value="" style="verticalLabelPosition=bottom;shadow=0;dashed=0;align=center;html=1;verticalAlign=top;strokeWidth=1;shape=mxgraph.mockup.markup.curlyBrace;whiteSpace=wrap;strokeColor=#999999;rotation=-180;fontFamily=Segoe UI;" parent="1" vertex="1">
          <mxGeometry x="-640" y="-598" width="40" height="11" as="geometry" />
        </mxCell>
        <mxCell id="U2g8rZyLT_9OAayW0UQs-50" style="edgeStyle=orthogonalEdgeStyle;rounded=0;orthogonalLoop=1;jettySize=auto;html=1;endArrow=oval;endFill=1;fontFamily=Segoe UI;" parent="1" source="U2g8rZyLT_9OAayW0UQs-49" target="U2g8rZyLT_9OAayW0UQs-37" edge="1">
          <mxGeometry relative="1" as="geometry" />
        </mxCell>
        <mxCell id="U2g8rZyLT_9OAayW0UQs-49" value="2020" style="ellipse;whiteSpace=wrap;html=1;fontStyle=1;fontFamily=Segoe UI;" parent="1" vertex="1">
          <mxGeometry x="-520.5" y="-640" width="40" height="40" as="geometry" />
        </mxCell>
        <mxCell id="U2g8rZyLT_9OAayW0UQs-54" style="edgeStyle=orthogonalEdgeStyle;rounded=0;orthogonalLoop=1;jettySize=auto;html=1;entryX=0.5;entryY=1;entryDx=0;entryDy=0;endArrow=oval;endFill=1;fontFamily=Segoe UI;" parent="1" source="U2g8rZyLT_9OAayW0UQs-52" target="U2g8rZyLT_9OAayW0UQs-18" edge="1">
          <mxGeometry relative="1" as="geometry" />
        </mxCell>
        <mxCell id="U2g8rZyLT_9OAayW0UQs-52" value="【IEEEVR 2021】Text2gestures&lt;div&gt;&lt;span style=&quot;box-sizing: border-box; font-weight: var(--base-text-weight-semibold, 600); color: rgb(31, 35, 40); font-size: 16px; text-align: left; background-color: rgb(255, 255, 255);&quot;&gt;Transformers&lt;/span&gt;&lt;br&gt;&lt;/div&gt;" style="text;html=1;align=center;verticalAlign=middle;whiteSpace=wrap;rounded=0;fontFamily=Segoe UI;" parent="1" vertex="1">
          <mxGeometry x="-470" y="-835" width="100" height="60" as="geometry" />
        </mxCell>
        <mxCell id="U2g8rZyLT_9OAayW0UQs-61" value="" style="verticalLabelPosition=bottom;shadow=0;dashed=0;align=center;html=1;verticalAlign=top;strokeWidth=1;shape=mxgraph.mockup.markup.curlyBrace;whiteSpace=wrap;strokeColor=#999999;rotation=-180;fontFamily=Segoe UI;" parent="1" vertex="1">
          <mxGeometry x="-521" y="-561" width="418" height="11" as="geometry" />
        </mxCell>
        <mxCell id="U2g8rZyLT_9OAayW0UQs-62" value="Implicit generative models" style="text;html=1;align=center;verticalAlign=middle;whiteSpace=wrap;rounded=0;fontStyle=1;fontFamily=Segoe UI;" parent="1" vertex="1">
          <mxGeometry x="-278.75" y="-591" width="175.75" height="30" as="geometry" />
        </mxCell>
        <mxCell id="U2g8rZyLT_9OAayW0UQs-63" value="Likelihood-based models" style="text;html=1;align=center;verticalAlign=middle;whiteSpace=wrap;rounded=0;fontStyle=1;fontFamily=Segoe UI;" parent="1" vertex="1">
          <mxGeometry x="-545.38" y="-588" width="175.75" height="30" as="geometry" />
        </mxCell>
        <mxCell id="U2g8rZyLT_9OAayW0UQs-64" value="Deep Learning" style="text;html=1;align=center;verticalAlign=middle;whiteSpace=wrap;rounded=0;fontStyle=1;fontFamily=Segoe UI;" parent="1" vertex="1">
          <mxGeometry x="-400.75" y="-550" width="175.75" height="30" as="geometry" />
        </mxCell>
      </root>
    </mxGraphModel>
  </diagram>
</mxfile>
